<svg data-v-423bf9ae="" xmlns="http://www.w3.org/2000/svg" viewBox="0 0 932 90" class="iconLeft"><!----><!----><!----><g data-v-423bf9ae="" id="a86146a2-ccf5-47ab-ac34-2b385af06aeb" fill="white" transform="matrix(4.166666501098216,0,0,4.166666501098216,168.46476408342465,-0.7916673107280019)"><path d="M9.69 14.87L11.79 14.87L6.05 8.33L10.95 3.99L8.71 3.99L3.08 9.14L3.08 3.99L1.26 3.99L1.26 14.87L3.08 14.87L3.08 10.95L4.86 9.37ZM19.98 13.01L20.06 9.74C20.10 8.15 18.97 6.90 16.65 6.90C13.52 6.90 12.77 9.21 12.77 9.21L14.50 9.72C14.50 9.72 14.88 8.15 16.70 8.15C18.51 8.15 18.37 9.77 18.37 9.77C14.20 10.25 13.05 12.05 13.05 13.36C13.05 14.32 13.78 15.06 14.92 15.06C17.25 15.06 18.37 11.93 18.37 11.93L18.37 13.26C18.37 14.63 19.24 15.06 20.10 15.06C21.41 15.06 21.92 14.36 21.92 14.36L21.59 13.12C21.59 13.12 21.28 13.82 20.59 13.82C20.15 13.82 19.96 13.50 19.98 13.01ZM14.83 13.01C14.83 12.32 15.25 11.05 18.37 10.25L18.37 10.74C18.40 11.33 17.05 13.82 15.57 13.82C15.11 13.82 14.83 13.54 14.83 13.01ZM25.37 14.88C24.85 16.07 24.07 16.90 23.38 16.90C22.69 16.90 22.40 16.32 22.39 16.30L22.19 17.54C22.19 17.54 22.69 18.19 23.73 18.19C25.02 18.19 25.87 17.02 26.92 14.87L30.69 7.10L28.78 7.10L26.45 12.60L24.00 7.10L22.06 7.10L25.59 14.38ZM44.81 13.01L44.90 9.74C44.94 8.15 43.81 6.90 41.48 6.90C38.36 6.90 37.60 9.21 37.60 9.21L39.34 9.72C39.34 9.72 39.72 8.15 41.54 8.15C43.34 8.15 43.20 9.77 43.20 9.77C39.03 10.25 37.88 12.05 37.88 13.36C37.88 14.32 38.61 15.06 39.76 15.06C42.08 15.06 43.20 11.93 43.20 11.93L43.20 13.26C43.20 14.63 44.07 15.06 44.94 15.06C46.24 15.06 46.76 14.36 46.76 14.36L46.42 13.12C46.42 13.12 46.12 13.82 45.43 13.82C44.98 13.82 44.80 13.50 44.81 13.01ZM39.66 13.01C39.66 12.32 40.08 11.05 43.20 10.25L43.20 10.74C43.23 11.33 41.89 13.82 40.40 13.82C39.94 13.82 39.66 13.54 39.66 13.01ZM54.36 11.77C54.36 11.77 54.35 13.82 52.12 13.82C50.54 13.82 49.39 12.80 49.39 10.98C49.39 9.32 50.25 8.15 51.84 8.15C53.68 8.15 54.25 9.59 54.14 10.98L55.87 10.47C55.80 9.00 55.02 6.90 51.84 6.90C49.18 6.90 47.60 8.65 47.60 10.98C47.60 13.61 49.64 15.06 51.91 15.06C55.59 15.06 56.10 12.28 56.10 12.28ZM64.54 11.77C64.54 11.77 64.53 13.82 62.30 13.82C60.72 13.82 59.57 12.80 59.57 10.98C59.57 9.32 60.42 8.15 62.02 8.15C63.85 8.15 64.43 9.59 64.32 10.98L66.05 10.47C65.98 9.00 65.20 6.90 62.02 6.90C59.36 6.90 57.78 8.65 57.78 10.98C57.78 13.61 59.82 15.06 62.09 15.06C65.77 15.06 66.28 12.28 66.28 12.28ZM67.96 10.98C67.96 13.27 69.59 15.06 72.37 15.06C75.14 15.06 76.78 13.27 76.78 10.98C76.78 8.69 75.14 6.90 72.37 6.90C69.59 6.90 67.96 8.69 67.96 10.98ZM69.75 10.98C69.75 9.30 70.74 8.15 72.37 8.15C73.96 8.15 74.98 9.30 74.98 10.98C74.98 12.66 73.96 13.82 72.37 13.82C70.74 13.82 69.75 12.66 69.75 10.98ZM80.56 7.10L78.88 7.10L78.88 11.91C78.88 13.87 79.83 15.06 82.14 15.06C85.11 15.06 85.30 12.56 85.30 12.56L86.02 14.87L86.83 14.87L86.83 7.10L85.15 7.10L85.15 11.72C85.15 12.19 84.87 13.82 82.75 13.82C81.35 13.82 80.56 13.19 80.56 11.89ZM95.62 14.87L97.30 14.87L97.30 10.05C97.30 8.09 96.35 6.90 94.04 6.90C91.07 6.90 90.87 9.41 90.87 9.41L90.16 7.10L89.35 7.10L89.35 14.87L91.03 14.87L91.03 10.25C91.03 9.77 91.31 8.15 93.42 8.15C94.82 8.15 95.62 8.78 95.62 10.08ZM98.84 8.15L100.58 8.15L100.58 12.24C100.58 14.18 101.60 15.06 103.26 15.06C104.99 15.06 105.73 13.94 105.73 13.94L105.39 12.70C105.39 12.70 104.97 13.82 103.61 13.82C102.72 13.82 102.26 13.27 102.26 12.05L102.26 8.15L105.45 8.15L105.45 7.10L102.26 7.10L102.26 4.21L100.65 5.33L100.65 7.10L98.84 7.10ZM107.27 5.33L108.95 5.33L108.95 3.99L107.27 3.99ZM107.27 14.87L108.95 14.87L108.95 7.10L107.27 7.10ZM117.74 14.87L119.42 14.87L119.42 10.05C119.42 8.09 118.47 6.90 116.16 6.90C113.19 6.90 112.99 9.41 112.99 9.41L112.28 7.10L111.47 7.10L111.47 14.87L113.15 14.87L113.15 10.25C113.15 9.77 113.43 8.15 115.54 8.15C116.94 8.15 117.74 8.78 117.74 10.08ZM125.82 12.32C128.58 12.32 129.78 11.02 129.78 9.62C129.78 9.03 129.57 8.47 129.12 8.01C128.66 7.41 129.22 6.73 130.72 7L130.38 5.75C128.41 5.50 127.90 6.36 128.58 7.56C127.93 7.15 127.01 6.90 125.78 6.90C122.98 6.90 121.77 8.22 121.77 9.62C121.77 10.63 122.40 11.59 123.82 12.04C123.16 12.10 121.66 12.33 121.66 13.38C121.66 14.71 123.82 14.77 123.82 14.77C122.47 14.77 121.38 15.36 121.38 16.37C121.38 17.09 121.91 18.13 124.50 18.13L126.32 18.13C129.23 18.13 130.44 17.29 130.44 15.90C130.44 14.85 129.74 13.82 127.32 13.82L124.66 13.82C123.86 13.82 123.45 13.55 123.45 13.05C123.45 12.46 124.04 12.26 124.47 12.21C124.87 12.28 125.31 12.32 125.82 12.32ZM123.56 9.62C123.56 8.74 124.15 7.95 125.78 7.95C127.40 7.95 127.97 8.74 127.97 9.62C127.97 10.47 127.40 11.27 125.78 11.27C124.15 11.27 123.56 10.47 123.56 9.62ZM127.19 15.05C128.27 15.13 128.63 15.50 128.63 16.09C128.63 16.97 127.82 17.28 125.97 17.28C123.87 17.28 123.19 16.97 123.19 16.09C123.19 14.87 124.81 14.87 124.81 14.87ZM149.58 8.30C149.58 8.30 149.13 3.79 143.84 3.79C139.97 3.79 137.77 6.16 137.77 9.44C137.77 12.70 140.11 15.06 143.98 15.06C149.44 15.06 149.87 10.77 149.87 10.77L147.99 10.22C147.99 10.22 147.91 13.68 143.98 13.68C141.34 13.68 139.69 11.83 139.69 9.44C139.69 7.03 141.20 5.18 143.84 5.18C147.56 5.18 147.70 8.86 147.70 8.86ZM151.97 14.87L153.65 14.87L153.65 3.99C153.65 3.99 152.87 4.14 151.97 4.14ZM156.17 5.33L157.85 5.33L157.85 3.99L156.17 3.99ZM156.17 14.87L157.85 14.87L157.85 7.10L156.17 7.10ZM166.64 14.87L168.32 14.87L168.32 10.05C168.32 8.09 167.37 6.90 165.06 6.90C162.09 6.90 161.90 9.41 161.90 9.41L161.18 7.10L160.37 7.10L160.37 14.87L162.05 14.87L162.05 10.25C162.05 9.77 162.33 8.15 164.44 8.15C165.84 8.15 166.64 8.78 166.64 10.08ZM170.84 5.33L172.52 5.33L172.52 3.99L170.84 3.99ZM170.84 14.87L172.52 14.87L172.52 7.10L170.84 7.10ZM181.38 11.77C181.38 11.77 181.37 13.82 179.14 13.82C177.56 13.82 176.41 12.80 176.41 10.98C176.41 9.32 177.27 8.15 178.86 8.15C180.70 8.15 181.27 9.59 181.16 10.98L182.90 10.47C182.83 9.00 182.04 6.90 178.86 6.90C176.20 6.90 174.62 8.65 174.62 10.98C174.62 13.61 176.67 15.06 178.93 15.06C182.62 15.06 183.12 12.28 183.12 12.28Z"></path></g><!----><g data-v-423bf9ae="" id="89bb9275-c067-4901-8400-3a218586712d" transform="matrix(4.803586662404586,0,0,4.803586662404586,0.14261340152661717,-31.22538662899096)" stroke="none" fill="white"><path d="M16 19.586l7.496-12.954H8.504zM7.496 12.414L0 25.368h14.992zM24.504 12.414l-7.496 12.954H32z"></path></g><!----></svg>