<?xml version="1.0" standalone="no"?>
<!DOCTYPE svg PUBLIC "-//W3C//DTD SVG 20010904//EN"
 "http://www.w3.org/TR/2001/REC-SVG-20010904/DTD/svg10.dtd">
<svg version="1.0" xmlns="http://www.w3.org/2000/svg"
 width="266.000000pt" height="272.000000pt" viewBox="0 0 266.000000 272.000000"
 preserveAspectRatio="xMidYMid meet">

<g transform="translate(0.000000,272.000000) scale(0.100000,-0.100000)"
fill="#000000" stroke="none">
<path d="M1652 2648 c-6 -6 -12 -22 -12 -35 l0 -23 -424 0 c-373 0 -426 -2
-440 -16 -9 -8 -16 -19 -16 -24 0 -13 42 -40 62 -40 17 0 18 -18 18 -280 l0
-280 -145 0 -144 0 -36 -31 -35 -31 -35 31 c-19 17 -41 29 -47 27 -7 -3 -63
-16 -125 -31 -92 -22 -119 -33 -153 -62 -75 -64 -75 -63 -78 -383 -2 -258 -1
-288 15 -319 24 -46 60 -71 111 -78 30 -4 42 -10 42 -22 0 -9 16 -205 35 -436
38 -460 36 -452 106 -487 51 -27 222 -25 266 2 60 36 60 35 99 490 29 334 38
496 43 755 l6 330 38 3 37 3 0 -258 c0 -203 3 -263 14 -278 13 -18 46 -19 819
-23 l805 -4 21 21 c21 21 21 25 21 681 l0 660 23 0 c13 0 32 9 42 20 17 19 17
21 0 40 -18 19 -31 20 -440 20 l-422 0 -9 33 c-10 35 -40 47 -62 25z m788
-778 l0 -640 -760 0 -760 0 0 239 0 240 234 3 c263 3 272 6 309 81 18 36 18
38 0 74 -37 75 -46 78 -309 81 l-234 3 0 280 0 279 760 0 760 0 0 -640z
m-1052 -5 c8 -3 12 -17 10 -37 l-3 -33 -312 -5 c-433 -7 -403 25 -403 -424 0
-268 -5 -367 -35 -730 -19 -232 -37 -427 -40 -433 -6 -18 -244 -18 -250 0 -3
6 -21 201 -40 433 -29 347 -35 468 -35 691 0 234 -2 274 -16 287 -21 21 -30
20 -48 -6 -13 -19 -16 -59 -16 -241 l0 -218 -38 3 -37 3 -3 299 c-2 253 0 303
13 322 21 32 40 41 151 69 102 27 110 26 142 -17 7 -10 22 -23 34 -29 17 -9
26 -5 62 30 l41 41 205 2 c246 4 600 -1 618 -7z"/>
<path d="M418 2576 c-253 -69 -286 -397 -51 -512 138 -68 300 -3 366 145 56
126 -7 283 -136 345 -67 32 -120 38 -179 22z m149 -81 c76 -32 112 -93 113
-188 0 -121 -75 -197 -196 -197 -118 0 -194 68 -202 181 -10 133 64 218 191
219 32 0 74 -7 94 -15z"/>
<path d="M856 1051 c-17 -18 -17 -20 3 -40 21 -21 29 -21 401 -21 l380 0 0
-172 0 -172 -240 -241 c-132 -133 -240 -246 -240 -251 0 -6 9 -19 20 -29 21
-19 23 -17 253 213 128 128 238 232 246 232 8 0 116 -104 240 -230 124 -127
231 -230 238 -230 15 0 43 28 43 43 0 6 -108 119 -240 252 l-240 241 0 172 0
172 383 0 c371 0 384 1 402 20 17 19 17 21 0 40 -18 20 -31 20 -825 20 -783 0
-807 -1 -824 -19z"/>
</g>
</svg>
