<?xml version="1.0" standalone="no"?>
<!DOCTYPE svg PUBLIC "-//W3C//DTD SVG 20010904//EN"
 "http://www.w3.org/TR/2001/REC-SVG-20010904/DTD/svg10.dtd">
<svg version="1.0" xmlns="http://www.w3.org/2000/svg"
 width="512.000000pt" height="512.000000pt" viewBox="0 0 512.000000 512.000000"
 preserveAspectRatio="xMidYMid meet">

<g transform="translate(0.000000,512.000000) scale(0.100000,-0.100000)"
fill="#00B63E" stroke="none">
<path d="M1218 4648 c-125 -16 -257 -115 -297 -222 -34 -92 -41 -201 -41 -653
l0 -432 -378 -3 -378 -3 -35 -24 c-134 -91 -105 -298 48 -340 23 -7 175 -11
391 -11 l352 0 0 -335 0 -335 -360 0 c-303 0 -367 -2 -398 -15 -157 -66 -161
-275 -7 -346 37 -17 71 -19 402 -19 l362 0 3 -593 c4 -655 3 -643 71 -743 55
-83 155 -120 275 -102 92 14 164 75 206 175 20 46 21 67 24 656 l3 607 597 0
597 0 300 -462 c386 -593 493 -747 579 -834 109 -110 194 -145 347 -145 183 0
275 66 327 236 13 42 16 145 19 627 l4 578 367 0 c335 0 370 2 407 19 154 71
150 280 -7 346 -31 13 -96 15 -403 15 l-365 0 0 335 0 335 358 0 c218 0 372 4
395 11 153 42 182 249 48 340 l-35 24 -383 3 -383 3 0 503 c0 319 -4 524 -11
561 -30 166 -120 246 -274 246 -165 0 -252 -92 -275 -289 -5 -48 -10 -297 -10
-554 l0 -468 -655 0 -655 0 -275 415 c-151 229 -318 484 -372 567 -116 181
-192 266 -265 298 -65 28 -144 38 -220 28z m378 -1116 l122 -187 -116 -3 c-64
-1 -122 0 -129 2 -10 4 -13 47 -13 191 0 102 3 185 8 185 4 0 62 -85 128 -188z
m590 -905 c118 -180 214 -329 214 -332 0 -3 -211 -5 -470 -5 l-470 0 0 335 0
335 256 -2 256 -3 214 -328z m1474 -2 l0 -335 -308 0 -308 0 -222 335 -221
335 530 0 529 0 0 -335z m0 -987 c0 -156 -4 -268 -9 -262 -13 14 -351 523
-351 529 0 3 81 5 180 5 l180 0 0 -272z"/>
</g>
</svg>
